<svg xmlns="http://www.w3.org/2000/svg" width="1254" height="1254" viewBox="0 0 1254 1254">
  <path id="background" d="M 0 0 H 1254 V 1254 H 0 Z" fill="#F9F4EE"></path>
  <path id="tile" d="M 949.00 1002.25 L 963.67 989.00 L 970.33 982.00 L 978.00 972.75 L 988.30 958.00 L 997.12 942.00 L 1004.30 925.00 L 1007.30 916.00 L 1010.20 905.00 L 1013.14 890.00 L 1014.45 878.00 L 1015.54 859.00 L 1015.38 381.00 L 1014.90 379.00 L 1014.22 369.00 L 1011.36 351.00 L 1008.30 339.00 L 1004.45 327.00 L 997.11 310.00 L 991.00 298.29 L 984.00 287.14 L 977.38 278.00 L 971.00 270.50 L 957.78 257.00 L 953.00 252.60 L 944.00 245.56 L 934.00 238.55 L 926.00 233.64 L 908.00 224.62 L 892.00 218.55 L 873.00 213.56 L 857.00 211.45 L 840.00 210.33 L 416.00 210.23 L 403.00 210.60 L 390.00 211.78 L 371.00 214.86 L 357.00 218.60 L 346.00 222.45 L 334.00 227.78 L 319.00 235.75 L 308.14 243.00 L 296.00 252.55 L 283.75 264.00 L 277.00 271.12 L 269.60 280.00 L 262.55 290.00 L 256.20 300.00 L 250.86 310.00 L 246.78 319.00 L 241.70 332.00 L 236.75 349.00 L 233.60 366.00 L 232.42 377.00 L 231.62 391.00 L 231.64 860.00 L 232.55 877.00 L 233.78 888.00 L 235.00 895.00 L 238.88 912.00 L 241.78 921.00 L 247.70 936.00 L 253.70 948.00 L 263.45 964.00 L 270.78 974.00 L 277.60 982.00 L 285.22 990.00 L 294.75 999.00 L 310.00 1010.80 L 322.00 1018.42 L 333.00 1024.22 L 340.00 1027.40 L 359.00 1034.45 L 374.00 1038.30 L 393.00 1041.14 L 413.00 1042.40 L 833.00 1042.45 L 853.00 1041.50 L 869.00 1039.30 L 879.00 1037.11 L 892.00 1033.45 L 901.00 1030.30 L 919.00 1022.22 L 926.00 1018.25 L 935.00 1012.55 Z" fill="#F1EAE0"></path>
  <path id="light-agent-mark" d="M 573.00 903.51 L 580.00 903.52 L 590.00 902.27 L 595.00 901.26 L 599.00 900.24 L 605.00 898.34 L 613.00 895.24 L 617.00 893.32 L 626.00 888.36 L 632.00 884.30 L 636.00 881.24 L 642.00 876.09 L 647.29 871.00 L 655.25 862.00 L 658.28 858.00 L 665.29 848.00 L 671.18 838.00 L 674.43 832.00 L 678.39 824.00 L 685.25 809.00 L 693.86 789.00 L 698.67 779.00 L 703.96 769.00 L 708.66 761.00 L 714.64 752.00 L 720.72 744.00 L 724.00 740.07 L 728.60 735.00 L 732.00 731.51 L 736.00 727.75 L 746.00 719.60 L 753.00 714.64 L 759.00 710.85 L 764.02 708.00 L 772.00 703.76 L 780.00 699.89 L 799.00 691.81 L 806.00 689.24 L 819.00 683.84 L 823.00 682.36 L 832.00 678.38 L 838.00 675.52 L 842.00 673.40 L 847.00 670.45 L 852.00 667.16 L 854.79 665.00 L 858.14 662.00 L 862.00 657.77 L 864.20 655.00 L 867.10 650.00 L 869.31 645.00 L 870.31 642.00 L 871.45 637.00 L 871.77 633.00 L 871.83 630.00 L 871.50 624.00 L 871.21 622.00 L 870.27 618.00 L 868.44 613.00 L 867.04 610.00 L 865.37 607.00 L 861.25 601.00 L 859.00 598.39 L 854.00 593.55 L 850.74 591.00 L 846.00 587.71 L 839.00 583.67 L 830.00 579.64 L 817.00 574.22 L 800.00 566.36 L 792.00 562.18 L 785.00 558.22 L 780.00 555.17 L 774.00 551.29 L 768.00 547.11 L 764.00 544.13 L 756.37 538.00 L 752.00 534.21 L 747.52 530.00 L 740.54 523.00 L 736.81 519.00 L 731.73 513.00 L 727.75 508.00 L 720.66 498.00 L 715.55 490.00 L 709.78 480.00 L 706.67 474.00 L 699.69 459.00 L 696.81 452.00 L 690.79 436.00 L 686.34 423.00 L 682.32 412.00 L 678.42 402.00 L 674.08 393.00 L 671.30 388.00 L 669.34 385.00 L 666.22 381.00 L 662.00 376.67 L 657.67 373.00 L 654.00 370.49 L 649.00 367.68 L 644.00 365.63 L 640.00 364.55 L 635.00 363.62 L 631.00 363.24 L 628.00 363.15 L 624.00 363.30 L 621.00 363.60 L 615.00 364.83 L 612.00 365.71 L 610.00 366.49 L 605.00 368.79 L 602.00 370.56 L 599.00 372.58 L 596.14 375.00 L 593.00 378.01 L 591.00 380.18 L 588.71 383.00 L 586.64 386.00 L 583.75 391.00 L 581.70 395.00 L 579.61 400.00 L 577.84 405.00 L 575.69 412.00 L 575.24 414.00 L 568.20 439.00 L 562.33 456.00 L 560.29 461.00 L 557.13 468.00 L 554.15 474.00 L 551.37 479.00 L 545.10 489.00 L 538.31 498.00 L 533.07 504.00 L 530.00 507.23 L 521.00 515.57 L 514.00 521.24 L 504.00 528.08 L 499.00 531.21 L 494.00 534.09 L 484.00 539.39 L 472.00 545.23 L 454.00 553.19 L 446.00 556.54 L 428.00 564.88 L 413.00 572.79 L 405.00 577.64 L 399.00 581.59 L 395.00 584.60 L 389.00 590.05 L 386.00 593.32 L 381.61 599.00 L 379.73 602.00 L 377.64 606.00 L 375.61 611.00 L 374.73 614.00 L 373.54 620.00 L 373.20 626.00 L 373.78 632.00 L 374.66 636.00 L 375.64 639.00 L 377.47 643.00 L 379.72 647.00 L 381.79 650.00 L 384.00 652.49 L 386.00 654.49 L 389.00 657.08 L 392.00 659.32 L 397.00 662.32 L 401.00 664.25 L 406.00 666.27 L 409.00 667.29 L 417.00 669.39 L 434.00 672.81 L 451.00 676.74 L 465.00 680.62 L 480.00 685.79 L 481.00 686.32 L 485.00 687.83 L 494.00 691.91 L 501.00 695.66 L 508.00 699.77 L 511.00 701.73 L 519.00 707.65 L 524.00 711.74 L 527.44 715.00 L 532.23 720.00 L 538.18 727.00 L 542.39 733.00 L 547.16 741.00 L 551.13 749.00 L 553.22 754.00 L 555.26 760.00 L 558.12 770.00 L 560.64 783.00 L 561.65 786.00 L 563.57 790.00 L 564.80 792.00 L 566.31 794.00 L 569.47 797.00 L 571.00 798.15 L 573.00 799.33 L 575.00 800.30 L 578.00 801.24 L 581.00 801.63 L 583.00 801.70 L 586.00 801.51 L 588.00 801.14 L 591.00 800.26 L 595.00 798.34 L 598.00 796.14 L 600.15 794.00 L 601.00 792.94 L 603.00 789.93 L 605.16 785.00 L 606.08 782.00 L 606.57 779.00 L 607.13 773.00 L 607.02 768.00 L 606.76 766.00 L 606.29 759.00 L 605.18 752.00 L 604.18 747.00 L 602.16 739.00 L 599.23 730.00 L 598.71 729.00 L 597.28 725.00 L 595.24 720.00 L 591.40 712.00 L 588.13 706.00 L 583.13 698.00 L 577.30 690.00 L 573.23 685.00 L 569.00 680.50 L 562.00 673.59 L 553.00 665.92 L 549.00 662.93 L 540.00 656.81 L 535.00 653.76 L 524.00 647.74 L 518.00 644.92 L 508.00 640.70 L 503.00 638.79 L 501.00 638.21 L 500.00 637.72 L 498.00 637.17 L 494.00 635.72 L 492.00 635.26 L 487.00 633.64 L 485.00 633.23 L 484.00 632.84 L 476.00 630.69 L 459.00 626.66 L 452.00 625.20 L 451.00 624.86 L 448.00 624.32 L 441.00 622.40 L 438.13 621.00 L 436.79 620.00 L 436.00 618.97 L 435.53 618.00 L 435.33 617.00 L 435.36 616.00 L 435.60 615.00 L 437.21 613.00 L 439.00 611.55 L 441.00 610.48 L 444.00 609.22 L 447.00 607.74 L 451.00 606.21 L 454.00 604.82 L 469.00 599.20 L 470.00 598.71 L 472.00 598.07 L 477.00 596.11 L 478.00 595.58 L 484.00 593.38 L 501.00 586.15 L 513.00 580.31 L 514.00 579.67 L 519.00 577.16 L 526.00 573.20 L 530.00 570.68 L 531.00 570.19 L 537.00 566.31 L 544.00 561.31 L 548.00 558.20 L 556.50 551.00 L 566.00 541.81 L 574.00 532.99 L 580.19 525.00 L 583.05 521.00 L 588.15 513.00 L 591.07 508.00 L 593.23 504.00 L 597.16 496.00 L 600.28 489.00 L 602.29 484.00 L 606.36 473.00 L 608.33 467.00 L 611.26 457.00 L 611.72 455.00 L 612.12 454.00 L 612.58 452.00 L 613.27 450.00 L 615.12 443.00 L 616.71 436.00 L 618.20 431.00 L 618.62 429.00 L 619.75 425.00 L 621.73 419.00 L 622.60 417.00 L 624.15 415.00 L 626.00 413.74 L 627.00 413.48 L 628.00 413.46 L 629.00 413.64 L 631.02 415.00 L 633.11 418.00 L 634.42 421.00 L 635.71 425.00 L 636.18 426.00 L 636.70 428.00 L 639.31 436.00 L 639.77 438.00 L 640.18 439.00 L 640.65 441.00 L 643.71 451.00 L 647.71 463.00 L 653.76 479.00 L 657.68 488.00 L 661.95 497.00 L 667.76 508.00 L 670.61 513.00 L 674.93 520.00 L 681.64 530.00 L 686.75 537.00 L 690.75 542.00 L 696.75 549.00 L 706.00 558.64 L 714.00 566.18 L 720.00 571.32 L 725.00 575.31 L 733.00 581.19 L 739.00 585.33 L 745.00 589.16 L 752.00 593.39 L 763.00 599.37 L 775.00 605.29 L 784.00 609.34 L 790.00 611.71 L 796.00 614.32 L 810.00 619.80 L 812.00 620.78 L 814.00 621.99 L 815.21 623.00 L 816.00 624.03 L 816.54 625.00 L 816.86 626.00 L 816.83 627.00 L 816.06 629.00 L 815.00 630.33 L 812.00 632.21 L 810.00 633.16 L 801.00 636.47 L 793.00 638.88 L 792.00 639.33 L 790.00 639.83 L 786.00 641.37 L 776.00 644.72 L 765.00 648.92 L 756.00 652.75 L 755.00 653.34 L 749.08 656.00 L 734.00 663.92 L 732.00 665.28 L 726.00 668.85 L 716.00 675.88 L 711.00 679.72 L 704.00 685.63 L 696.05 693.00 L 692.00 697.14 L 686.63 703.00 L 680.76 710.00 L 674.75 718.00 L 670.64 724.00 L 666.76 730.00 L 663.69 735.00 L 660.86 740.00 L 652.59 756.00 L 647.87 766.00 L 644.87 773.00 L 637.40 792.00 L 634.73 798.00 L 633.15 802.00 L 630.42 808.00 L 626.24 816.00 L 621.40 824.00 L 619.32 827.00 L 614.31 833.00 L 610.54 837.00 L 606.00 841.28 L 601.00 845.10 L 594.00 849.41 L 588.00 852.40 L 580.00 855.25 L 578.00 855.70 L 576.00 856.36 L 574.00 856.72 L 570.00 857.77 L 569.00 858.24 L 567.00 858.84 L 563.00 860.65 L 560.00 862.57 L 558.00 864.35 L 555.58 867.00 L 553.61 870.00 L 552.60 872.00 L 551.48 875.00 L 550.86 878.00 L 550.67 881.00 L 550.80 883.00 L 551.62 887.00 L 552.70 890.00 L 553.73 892.00 L 556.82 896.00 L 558.00 897.13 L 561.00 899.36 L 565.00 901.41 L 567.00 902.17 L 570.00 903.01 Z" fill="#434840"></path>
  <path id="status-dot" d="M 833.00 439.03 L 839.00 438.06 L 842.00 437.20 L 847.00 435.04 L 850.00 433.36 L 853.00 431.22 L 855.48 429.00 L 858.32 426.00 L 861.37 422.00 L 863.54 418.00 L 865.12 414.00 L 866.40 409.00 L 866.85 404.00 L 866.77 400.00 L 866.26 395.00 L 865.34 391.00 L 863.31 386.00 L 860.31 381.00 L 859.00 379.25 L 856.25 376.00 L 854.00 373.89 L 851.00 371.52 L 848.00 369.69 L 844.00 367.81 L 841.00 366.74 L 837.00 365.74 L 835.00 365.48 L 831.00 365.21 L 827.00 365.36 L 824.00 365.76 L 820.00 366.76 L 817.00 367.79 L 813.00 369.65 L 810.00 371.56 L 807.00 373.86 L 805.00 375.69 L 802.88 378.00 L 800.52 381.00 L 798.64 384.00 L 796.73 388.00 L 795.68 391.00 L 794.64 395.00 L 793.90 401.00 L 793.89 404.00 L 794.68 410.00 L 795.84 414.00 L 797.52 418.00 L 799.57 422.00 L 800.80 424.00 L 803.28 427.00 L 806.28 430.00 L 809.00 432.23 L 812.00 434.13 L 814.00 435.23 L 819.00 437.36 L 823.00 438.46 L 827.00 439.00 L 830.00 439.14 Z" fill="#434840"></path>
</svg>